<svg id="visual" viewBox="0 0 900 600" width="900" height="600" xmlns="http://www.w3.org/2000/svg" xmlns:xlink="http://www.w3.org/1999/xlink" version="1.1"><rect width="900" height="600" fill="#d3d3d3"></rect><g><g transform="translate(720 334)"><path d="M35.4 -41C45.1 -33.9 51.8 -22.1 53.8 -9.7C55.7 2.7 52.8 15.8 45.8 25C38.8 34.2 27.5 39.5 16 43.5C4.5 47.5 -7.4 50.2 -17.4 46.9C-27.3 43.6 -35.4 34.4 -40.3 24.1C-45.3 13.9 -47 2.6 -45.1 -7.9C-43.1 -18.4 -37.5 -28.2 -29.4 -35.5C-21.2 -42.9 -10.6 -47.9 1.1 -49.2C12.8 -50.5 25.6 -48.1 35.4 -41Z" stroke="#8f5beb" fill="none" stroke-width="3"></path></g><g transform="translate(869 347)"><path d="M17.6 -21.9C22.1 -17.3 24.3 -11 25.3 -4.6C26.2 1.8 25.8 8.2 23.7 15.4C21.6 22.6 17.8 30.4 11.5 33.7C5.1 37 -3.7 35.7 -11.1 32.3C-18.6 28.8 -24.7 23.3 -27.1 16.8C-29.6 10.3 -28.3 2.7 -27.5 -5.3C-26.6 -13.3 -26.1 -21.9 -21.5 -26.4C-17 -31 -8.5 -31.5 -1 -30.4C6.6 -29.3 13.2 -26.4 17.6 -21.9Z" stroke="#8f5beb" fill="none" stroke-width="3"></path></g><g transform="translate(748 111)"><path d="M4.6 -5.5C5.7 -4.6 6.1 -2.9 6.1 -1.3C6.2 0.3 6 1.8 5.3 3.3C4.7 4.7 3.7 6.1 2.3 6.9C0.9 7.7 -1 7.8 -2.3 7C-3.6 6.3 -4.4 4.6 -5.4 3C-6.4 1.5 -7.6 0 -7.5 -1.4C-7.4 -2.8 -6 -4.1 -4.5 -4.9C-3 -5.6 -1.5 -5.9 0.1 -6C1.8 -6.2 3.6 -6.3 4.6 -5.5Z" stroke="#8f5beb" fill="none" stroke-width="3"></path></g><g transform="translate(226 115)"><path d="M16.3 -20.3C20.6 -15.9 23.1 -10.2 24.5 -4.1C25.8 2 26 8.6 23.4 13.9C20.8 19.3 15.4 23.4 9.5 25.2C3.5 27 -3 26.5 -8.7 24.2C-14.5 22 -19.6 18.2 -22.5 13.1C-25.3 8 -25.9 1.6 -24.5 -3.9C-23 -9.5 -19.5 -14.3 -15.1 -18.7C-10.7 -23.2 -5.3 -27.3 0.3 -27.7C6 -28.1 12.1 -24.8 16.3 -20.3Z" stroke="#8f5beb" fill="none" stroke-width="3"></path></g><g transform="translate(828 476)"><path d="M5.6 -6.5C7 -5.5 7.6 -3.5 7.6 -1.7C7.5 0.1 6.7 1.8 5.7 3.1C4.7 4.5 3.6 5.6 2.1 6.3C0.7 7 -1.1 7.4 -2.9 7.1C-4.7 6.8 -6.6 5.8 -7.4 4.3C-8.2 2.8 -7.9 0.7 -7.5 -1.3C-7.1 -3.3 -6.6 -5.3 -5.4 -6.3C-4.1 -7.2 -2 -7.2 0 -7.2C2.1 -7.3 4.2 -7.4 5.6 -6.5Z" stroke="#8f5beb" fill="none" stroke-width="3"></path></g><g transform="translate(139 447)"><path d="M9.5 -10.8C12.7 -8.6 16 -6 17 -2.6C18.1 0.8 17 5 14.8 8.2C12.5 11.5 9.2 13.8 5.5 15.2C1.8 16.5 -2.2 16.9 -5.6 15.6C-9 14.3 -11.7 11.3 -13 8C-14.4 4.7 -14.4 1.1 -13.8 -2.5C-13.3 -6.1 -12.2 -9.6 -9.8 -12C-7.4 -14.4 -3.7 -15.6 -0.3 -15.3C3.1 -15 6.2 -13.1 9.5 -10.8Z" stroke="#8f5beb" fill="none" stroke-width="3"></path></g><g transform="translate(89 262)"><path d="M21.8 -25.7C27.2 -21.4 30 -13.6 30.7 -5.9C31.5 1.7 30.3 9.3 26.6 15.1C22.9 20.9 16.8 25 10.3 26.7C3.9 28.3 -2.9 27.4 -8.8 24.9C-14.7 22.4 -19.7 18.3 -22.4 13.2C-25 8 -25.3 1.7 -25.1 -5.2C-24.8 -12.2 -24 -19.9 -19.7 -24.5C-15.5 -29 -7.7 -30.4 0.2 -30.7C8.2 -30.9 16.3 -30 21.8 -25.7Z" stroke="#8f5beb" fill="none" stroke-width="3"></path></g><g transform="translate(422 436)"><path d="M5 -5.7C6.3 -4.9 6.9 -3.1 7 -1.4C7 0.2 6.5 1.8 5.5 3C4.6 4.1 3.3 4.8 1.9 5.2C0.6 5.6 -0.8 5.7 -2 5.3C-3.3 5 -4.5 4.1 -5.3 3C-6.1 1.8 -6.4 0.3 -6.2 -1.2C-6.1 -2.7 -5.4 -4.2 -4.3 -5C-3.2 -5.8 -1.6 -6 0.1 -6.2C1.9 -6.4 3.7 -6.5 5 -5.7Z" stroke="#8f5beb" fill="none" stroke-width="3"></path></g><g transform="translate(103 141)"><path d="M7.9 -10.1C10.1 -7.5 11.8 -5 12.4 -2.1C13 0.8 12.7 4 11.4 6.9C10.1 9.8 7.8 12.6 5 13.4C2.2 14.2 -1.1 13.2 -4.8 12.3C-8.4 11.3 -12.4 10.4 -13.9 8C-15.3 5.5 -14.2 1.6 -13 -1.7C-11.7 -5 -10.2 -7.7 -8 -10.2C-5.8 -12.8 -2.9 -15.2 0 -15.2C2.8 -15.2 5.7 -12.7 7.9 -10.1Z" stroke="#8f5beb" fill="none" stroke-width="3"></path></g><g transform="translate(577 249)"><path d="M24.6 -28.2C31.9 -23.2 37.8 -15.5 41.4 -5.7C45.1 4.1 46.5 15.9 41.4 23.1C36.3 30.2 24.5 32.7 13.8 35.7C3 38.7 -6.8 42.2 -15.6 40.2C-24.3 38.1 -32.1 30.5 -38.3 21.3C-44.5 12.1 -49.2 1.3 -47.2 -8.1C-45.2 -17.5 -36.6 -25.4 -27.6 -30.1C-18.7 -34.7 -9.3 -36.1 -0.3 -35.7C8.7 -35.3 17.3 -33.1 24.6 -28.2Z" stroke="#8f5beb" fill="none" stroke-width="3"></path></g><g transform="translate(400 230)"><path d="M28.9 -35.3C36.5 -28.1 41.1 -18.1 42.6 -7.8C44.2 2.5 42.7 13.1 37.4 20.9C32.1 28.6 23 33.4 13.7 35.9C4.5 38.5 -4.9 38.8 -14.4 36.7C-24 34.5 -33.8 29.8 -39.5 21.9C-45.1 13.9 -46.7 2.7 -44 -6.9C-41.3 -16.5 -34.3 -24.5 -26.2 -31.6C-18.1 -38.8 -9.1 -45.1 0.8 -46.1C10.7 -47 21.3 -42.5 28.9 -35.3Z" stroke="#8f5beb" fill="none" stroke-width="3"></path></g><g transform="translate(260 352)"><path d="M5.5 -6.5C7 -5.2 8.1 -3.4 8.4 -1.5C8.7 0.4 8.1 2.4 7 3.9C6 5.5 4.4 6.6 2.6 7.4C0.8 8.2 -1.3 8.7 -3.4 8.4C-5.5 8 -7.7 6.9 -8.9 5.1C-10.1 3.2 -10.3 0.7 -9.5 -1.3C-8.7 -3.4 -7.1 -4.9 -5.3 -6.2C-3.6 -7.4 -1.8 -8.4 0.1 -8.5C2 -8.6 3.9 -7.8 5.5 -6.5Z" stroke="#8f5beb" fill="none" stroke-width="3"></path></g><g transform="translate(82 16)"><path d="M16 -18.5C20.8 -15.1 24.7 -10.1 26.3 -4.2C28 1.8 27.4 8.6 24.3 14.2C21.3 19.8 15.8 24.1 10.1 25.1C4.3 26.1 -1.7 23.7 -7.8 21.5C-14 19.3 -20.1 17.2 -23.3 12.9C-26.4 8.6 -26.4 2 -25.2 -4.3C-23.9 -10.6 -21.3 -16.5 -16.9 -19.9C-12.5 -23.4 -6.3 -24.3 -0.3 -24C5.6 -23.6 11.3 -21.9 16 -18.5Z" stroke="#8f5beb" fill="none" stroke-width="3"></path></g><g transform="translate(876 152)"><path d="M23.5 -27.8C28.5 -23.7 29.4 -14.5 29.1 -6.6C28.8 1.4 27.2 8.1 24.2 14.6C21.2 21.1 16.7 27.4 10.2 31.1C3.7 34.9 -4.9 36 -13.7 34.3C-22.4 32.5 -31.2 27.8 -34.2 20.7C-37.2 13.6 -34.3 4 -32.2 -5.3C-30.2 -14.7 -28.9 -23.8 -23.7 -27.9C-18.4 -31.9 -9.2 -30.9 0 -30.9C9.2 -30.9 18.4 -31.9 23.5 -27.8Z" stroke="#8f5beb" fill="none" stroke-width="3"></path></g><g transform="translate(478 111)"><path d="M20.1 -24.9C25.2 -19.6 28 -12.5 28.4 -5.6C28.9 1.2 27 7.8 24 14.7C21.1 21.6 17 28.6 11.4 30.2C5.8 31.7 -1.4 27.7 -9 24.9C-16.5 22 -24.5 20.4 -27.4 15.6C-30.4 10.9 -28.5 3.1 -25.8 -3.2C-23.1 -9.6 -19.6 -14.4 -15.2 -19.9C-10.8 -25.4 -5.4 -31.4 1 -32.7C7.5 -33.9 14.9 -30.3 20.1 -24.9Z" stroke="#8f5beb" fill="none" stroke-width="3"></path></g><g transform="translate(497 536)"><path d="M14.9 -18.2C19.3 -14.1 22.7 -9.4 23.4 -4.3C24.1 0.8 22.2 6.3 19.3 11.2C16.5 16.1 12.8 20.6 8.1 22.3C3.4 24 -2.3 23 -8 21.2C-13.7 19.5 -19.3 16.9 -21.2 12.7C-23.2 8.5 -21.4 2.5 -20.5 -3.8C-19.6 -10.1 -19.6 -16.7 -16.3 -21C-13.1 -25.3 -6.5 -27.3 -0.6 -26.5C5.3 -25.8 10.6 -22.4 14.9 -18.2Z" stroke="#8f5beb" fill="none" stroke-width="3"></path></g><g transform="translate(306 490)"><path d="M19.6 -21.1C26.4 -17.6 33.6 -12.4 35.8 -5.5C38.1 1.5 35.3 10.1 30.1 15.6C24.8 21 17 23.3 10 24.5C3 25.6 -3.2 25.8 -9.2 24.1C-15.2 22.5 -21 19 -25.2 13.6C-29.5 8.3 -32.1 1.1 -31.8 -6.4C-31.4 -13.8 -28 -21.5 -22.2 -25.2C-16.4 -28.8 -8.2 -28.3 -0.9 -27.2C6.4 -26.2 12.8 -24.5 19.6 -21.1Z" stroke="#8f5beb" fill="none" stroke-width="3"></path></g><g transform="translate(408 10)"><path d="M14.7 -18C18.5 -14.3 20.7 -9.2 22.2 -3.5C23.7 2.2 24.5 8.4 22 12.6C19.4 16.8 13.6 19 7.7 21C1.9 23 -3.9 24.9 -8.4 23.2C-12.9 21.5 -16 16.3 -19.2 11C-22.4 5.7 -25.6 0.3 -25.7 -5.5C-25.8 -11.3 -22.8 -17.4 -18 -20.9C-13.2 -24.4 -6.6 -25.3 -0.6 -24.6C5.4 -23.8 10.9 -21.6 14.7 -18Z" stroke="#8f5beb" fill="none" stroke-width="3"></path></g><g transform="translate(591 461)"><path d="M24.8 -27.4C32.5 -23.1 39.3 -15.6 42.1 -6.5C44.8 2.7 43.5 13.5 38.6 22.5C33.7 31.5 25.2 38.7 15.3 42.3C5.5 46 -5.7 46.1 -13.2 41.3C-20.8 36.4 -24.8 26.5 -27.7 17.8C-30.5 9.1 -32.2 1.6 -32.2 -6.9C-32.1 -15.3 -30.3 -24.6 -24.6 -29.2C-19 -33.8 -9.5 -33.8 -0.5 -33.2C8.6 -32.7 17.1 -31.7 24.8 -27.4Z" stroke="#8f5beb" fill="none" stroke-width="3"></path></g><g transform="translate(29 592)"><path d="M16.7 -21.9C20.9 -16.4 23.1 -10.4 24 -4.4C24.8 1.6 24.3 7.7 22.1 14C19.9 20.3 16.1 26.9 10.2 29.7C4.4 32.5 -3.3 31.5 -10.8 29.1C-18.3 26.6 -25.5 22.8 -28.4 16.9C-31.2 11 -29.6 3 -27.5 -4.2C-25.5 -11.4 -23 -17.9 -18.3 -23.4C-13.6 -28.9 -6.8 -33.4 -0.3 -33.1C6.2 -32.7 12.5 -27.5 16.7 -21.9Z" stroke="#8f5beb" fill="none" stroke-width="3"></path></g><g transform="translate(701 535)"><path d="M4.8 -6.1C5.8 -4.9 6 -3 6.1 -1.2C6.3 0.5 6.4 2.2 5.8 3.4C5.2 4.7 3.8 5.6 2.3 5.9C0.9 6.2 -0.6 5.9 -1.8 5.3C-3 4.7 -4 3.8 -4.7 2.7C-5.3 1.6 -5.6 0.3 -5.6 -1.2C-5.6 -2.6 -5.2 -4.2 -4.2 -5.4C-3.2 -6.6 -1.6 -7.4 0.1 -7.5C1.9 -7.7 3.8 -7.2 4.8 -6.1Z" stroke="#8f5beb" fill="none" stroke-width="3"></path></g><g transform="translate(211 586)"><path d="M8.9 -9.7C11.5 -8.4 13.6 -5.6 13.6 -2.8C13.7 0.1 11.8 2.9 9.9 5.4C8.1 7.9 6.3 10.1 3.9 11.2C1.5 12.3 -1.4 12.2 -3.9 11.2C-6.5 10.1 -8.5 8.1 -10.2 5.7C-11.8 3.2 -13.1 0.3 -12.6 -2.2C-12.1 -4.7 -9.8 -6.8 -7.4 -8.1C-5 -9.4 -2.5 -9.9 0.3 -10.3C3.1 -10.6 6.3 -10.9 8.9 -9.7Z" stroke="#8f5beb" fill="none" stroke-width="3"></path></g><g transform="translate(878 591)"><path d="M26.5 -33.7C32.6 -26.5 34.5 -16.4 34.6 -7.4C34.7 1.7 32.9 9.8 28.9 16.4C24.8 23 18.4 28.1 11.1 30.9C3.9 33.6 -4.4 34.1 -13 32.4C-21.5 30.6 -30.5 26.7 -35.3 19.8C-40 12.8 -40.5 2.8 -38.7 -6.7C-36.8 -16.1 -32.6 -24.9 -25.7 -32C-18.9 -39.1 -9.5 -44.4 0.4 -44.8C10.2 -45.2 20.4 -40.9 26.5 -33.7Z" stroke="#8f5beb" fill="none" stroke-width="3"></path></g><g transform="translate(599 5)"><path d="M21.1 -25.8C27 -20.2 31.1 -13.2 31.1 -6.5C31.1 0.2 27 6.7 22.7 12.1C18.4 17.6 14 22 8.2 25.3C2.4 28.6 -4.8 30.7 -11.5 29.3C-18.2 27.9 -24.5 22.8 -28.9 16.2C-33.4 9.6 -35.9 1.4 -34.2 -5.6C-32.5 -12.7 -26.5 -18.6 -20.1 -24C-13.7 -29.5 -6.8 -34.6 0.4 -35C7.6 -35.5 15.2 -31.3 21.1 -25.8Z" stroke="#8f5beb" fill="none" stroke-width="3"></path></g><g transform="translate(13 451)"><path d="M6.8 -7.3C9.4 -6 12.3 -4.3 12.7 -2.2C13.1 -0.1 10.9 2.4 9 4.8C7.2 7.2 5.7 9.4 3.5 10.7C1.3 11.9 -1.6 12.1 -4.3 11.3C-7 10.6 -9.5 8.7 -11.2 6.2C-12.9 3.7 -13.8 0.6 -13 -1.9C-12.1 -4.4 -9.4 -6.2 -7 -7.6C-4.5 -8.9 -2.3 -9.8 -0.1 -9.7C2.1 -9.7 4.3 -8.7 6.8 -7.3Z" stroke="#8f5beb" fill="none" stroke-width="3"></path></g><g transform="translate(857 20)"><path d="M22.9 -29.1C28.2 -22.8 30.1 -14.2 30 -6.5C29.8 1.1 27.6 7.9 24 13.5C20.4 19.1 15.2 23.5 8.9 26.9C2.5 30.3 -5.1 32.7 -12.4 31.3C-19.7 29.9 -26.5 24.6 -31.5 17.5C-36.4 10.3 -39.5 1.4 -37.4 -5.9C-35.3 -13.3 -28.1 -19.1 -21.1 -25.2C-14 -31.2 -7 -37.4 0.9 -38.4C8.8 -39.5 17.6 -35.5 22.9 -29.1Z" stroke="#8f5beb" fill="none" stroke-width="3"></path></g><g transform="translate(261 232)"><path d="M17.5 -21.5C22.7 -16.4 27.1 -11 28.8 -4.6C30.6 1.8 29.6 9.2 26.8 16.8C23.9 24.4 19.3 32.2 12.5 34.9C5.8 37.6 -3.1 35.1 -9.9 30.9C-16.7 26.8 -21.5 21 -26.6 14.3C-31.6 7.6 -37 0.1 -36.1 -6.6C-35.2 -13.2 -27.9 -18.9 -20.8 -23.7C-13.8 -28.5 -6.9 -32.3 -0.4 -31.8C6.1 -31.4 12.2 -26.6 17.5 -21.5Z" stroke="#8f5beb" fill="none" stroke-width="3"></path></g><g transform="translate(487 330)"><path d="M6.8 -8.1C9 -6.2 11.1 -4.3 11.8 -1.9C12.4 0.5 11.5 3.3 10 5.7C8.5 8.1 6.4 10 4 11C1.5 11.9 -1.4 11.9 -3.5 10.7C-5.7 9.5 -7.1 7.2 -8.3 4.9C-9.6 2.6 -10.8 0.2 -10.8 -2.3C-10.7 -4.7 -9.6 -7.4 -7.6 -9.3C-5.6 -11.1 -2.8 -12.3 -0.3 -12C2.3 -11.7 4.6 -9.9 6.8 -8.1Z" stroke="#8f5beb" fill="none" stroke-width="3"></path></g><g transform="translate(376 591)"><path d="M14.3 -18.4C17.4 -14.4 18.1 -8.9 18.8 -3.5C19.5 1.8 20.2 6.9 18.4 11.3C16.7 15.6 12.4 19.1 7.9 19.9C3.4 20.7 -1.4 18.9 -6.4 17.3C-11.5 15.6 -16.7 14.2 -19.8 10.6C-22.8 7 -23.7 1.3 -22.1 -3.2C-20.5 -7.8 -16.4 -11.2 -12.3 -15C-8.2 -18.8 -4.1 -22.9 0.7 -23.8C5.6 -24.7 11.2 -22.3 14.3 -18.4Z" stroke="#8f5beb" fill="none" stroke-width="3"></path></g></g></svg>